# Blender v3.0.1 OBJ File: ''
# www.blender.org
mtllib tallgrass.mtl
o green_tall_patch_green_gp.001
v 0.292064 0.586749 0.439011
v -0.298968 0.631408 -0.366400
v 0.295699 -0.054643 0.400779
v -0.295333 -0.009985 -0.404632
v 0.014647 0.598800 0.499411
v -0.059240 0.598800 -0.497856
v 0.137770 -0.031769 0.490288
v 0.063883 -0.031769 -0.506978
v -0.498200 0.598800 0.274070
v 0.495564 0.598800 0.162571
v -0.484434 -0.031769 0.396761
v 0.509330 -0.031769 0.285261
v -0.435102 0.586749 0.260708
v 0.299387 0.631408 -0.416441
v -0.396704 -0.054643 0.260058
v 0.337786 -0.009985 -0.417092
v -0.191457 0.598800 -0.490523
v -0.087780 0.598800 0.504088
v -0.314252 -0.031769 -0.477723
v -0.210575 -0.031769 0.516888
v 0.125244 0.586749 0.409891
v 0.307632 0.631408 -0.572321
v 0.155598 -0.054643 0.386365
v 0.337987 -0.009985 -0.595847
vt 1.000000 0.007470
vt 0.000000 0.650011
vt 0.000000 0.007470
vt 1.000000 0.007470
vt 0.000000 0.650011
vt 0.000000 0.007470
vt 1.000000 0.007470
vt 0.000000 0.650011
vt 0.000000 0.007470
vt 1.000000 0.007470
vt 0.000000 0.650011
vt 0.000000 0.007470
vt 1.000000 0.007470
vt 0.000000 0.650011
vt 0.000000 0.007470
vt 1.000000 0.007470
vt 0.000000 0.650011
vt 0.000000 0.007470
vt 1.000000 0.650011
vt 1.000000 0.650011
vt 1.000000 0.650011
vt 1.000000 0.650011
vt 1.000000 0.650011
vt 1.000000 0.650011
vn 0.8066 0.0397 -0.5897
vn 0.9787 0.1921 -0.0725
vn 0.1094 0.1921 0.9752
vn 0.6760 0.0397 0.7358
vn -0.9761 0.1921 0.1017
vn 0.9821 0.0397 0.1842
usemtl green
s off
f 4/1/1 1/2/1 3/3/1
f 8/4/2 5/5/2 7/6/2
f 12/7/3 9/8/3 11/9/3
f 16/10/4 13/11/4 15/12/4
f 20/13/5 17/14/5 19/15/5
f 24/16/6 21/17/6 23/18/6
f 4/1/1 2/19/1 1/2/1
f 8/4/2 6/20/2 5/5/2
f 12/7/3 10/21/3 9/8/3
f 16/10/4 14/22/4 13/11/4
f 20/13/5 18/23/5 17/14/5
f 24/16/6 22/24/6 21/17/6
